<svg width="227" height="227" viewBox="0 0 227 227" fill="none" xmlns="http://www.w3.org/2000/svg">
    <path d="M227 173.61H0V173.723H227V173.61Z" fill="#EBEBEB"/>
    <path d="M204.255 177.932H162.986V178.045H204.255V177.932Z" fill="#EBEBEB"/>
    <path d="M150.374 176.701H139.074V176.815H150.374V176.701Z" fill="#EBEBEB"/>
    <path d="M176.202 182.149H158.682V182.263H176.202V182.149Z" fill="#EBEBEB"/>
    <path d="M34.0954 181.387H23.8168V181.5H34.0954V181.387Z" fill="#EBEBEB"/>
    <path d="M50.344 181.387H38.136V181.5H50.344V181.387Z" fill="#EBEBEB"/>
    <path d="M102.218 179.471H80.9527V179.584H102.218V179.471Z" fill="#EBEBEB"/>
    <path d="M107.598 153.361H19.9352C19.2484 153.36 18.5902 153.086 18.105 152.6C17.6198 152.114 17.3474 151.456 17.3474 150.769V27.5396C17.3533 26.8568 17.6285 26.204 18.113 25.7228C18.5975 25.2417 19.2523 24.9712 19.9352 24.97H107.598C108.286 24.97 108.945 25.2431 109.431 25.7293C109.917 26.2154 110.19 26.8748 110.19 27.5623V150.769C110.19 151.456 109.917 152.116 109.431 152.602C108.945 153.088 108.286 153.361 107.598 153.361ZM19.9352 25.0608C19.2785 25.062 18.6492 25.3237 18.1853 25.7884C17.7214 26.2532 17.4608 26.883 17.4609 27.5396V150.769C17.4608 151.425 17.7214 152.055 18.1853 152.52C18.6492 152.985 19.2785 153.246 19.9352 153.248H107.598C108.255 153.246 108.885 152.985 109.35 152.52C109.814 152.056 110.076 151.426 110.077 150.769V27.5396C110.076 26.8826 109.814 26.2528 109.35 25.7882C108.885 25.3235 108.255 25.062 107.598 25.0608H19.9352Z" fill="#EBEBEB"/>
    <path d="M205.803 153.361H118.135C117.448 153.36 116.79 153.087 116.304 152.601C115.818 152.115 115.544 151.456 115.543 150.769V27.5396C115.55 26.8564 115.826 26.2036 116.312 25.7225C116.797 25.2415 117.452 24.9712 118.135 24.97H205.803C206.485 24.9724 207.138 25.2434 207.622 25.7244C208.106 26.2054 208.38 26.8576 208.386 27.5396V150.769C208.386 151.455 208.114 152.113 207.63 152.599C207.146 153.085 206.489 153.359 205.803 153.361ZM118.135 25.0608C117.478 25.062 116.848 25.3235 116.384 25.7882C115.919 26.2528 115.658 26.8826 115.656 27.5396V150.769C115.658 151.426 115.919 152.056 116.384 152.52C116.848 152.985 117.478 153.246 118.135 153.248H205.803C206.46 153.246 207.09 152.985 207.554 152.52C208.019 152.056 208.28 151.426 208.282 150.769V27.5396C208.28 26.8826 208.019 26.2528 207.554 25.7882C207.09 25.3235 206.46 25.062 205.803 25.0608H118.135Z" fill="#EBEBEB"/>
    <path d="M23.8123 173.605H78.0925L78.0925 53.5629H23.8123L23.8123 173.605Z" fill="#F0F0F0"/>
    <path d="M23.8168 173.605H75.5229L75.5229 53.5629H23.8168L23.8168 173.605Z" fill="#F5F5F5"/>
    <path d="M72.7989 170.886V56.2915H26.5408L26.5408 170.886H72.7989Z" fill="#F0F0F0"/>
    <path d="M41.4865 110.322H32.0569C31.7358 110.321 31.4282 110.193 31.2011 109.966C30.974 109.739 30.846 109.431 30.8448 109.11C30.846 108.789 30.974 108.481 31.2011 108.254C31.4282 108.027 31.7358 107.899 32.0569 107.898H41.4865C41.8076 107.899 42.1153 108.027 42.3423 108.254C42.5694 108.481 42.6975 108.789 42.6987 109.11C42.6975 109.431 42.5694 109.739 42.3423 109.966C42.1153 110.193 41.8076 110.321 41.4865 110.322Z" fill="white"/>
    <path d="M27.2491 170.886L27.2491 56.2915H26.5408L26.5408 170.886H27.2491Z" fill="#F0F0F0"/>
    <path d="M103.526 171.331H111.607V136.282H103.526V171.331Z" fill="#F0F0F0"/>
    <path d="M70.202 173.555H110.054V171.335H70.202V173.555Z" fill="#F0F0F0"/>
    <path d="M103.526 136.286H68.6494V171.335H103.526V136.286Z" fill="#F5F5F5"/>
    <path d="M100.343 140.599H71.8228V152.095H100.343V140.599Z" fill="#F0F0F0"/>
    <path d="M100.343 155.522H71.8228V167.018H100.343V155.522Z" fill="#F0F0F0"/>
    <path d="M82.8822 141.566H89.2882C89.4961 141.565 89.6952 141.482 89.8422 141.335C89.9893 141.188 90.0724 140.989 90.0736 140.781C90.0736 140.572 89.991 140.372 89.8438 140.224C89.6966 140.076 89.4969 139.992 89.2882 139.991H82.8822C82.6735 139.992 82.4737 140.076 82.3266 140.224C82.1794 140.372 82.0968 140.572 82.0968 140.781C82.098 140.989 82.1811 141.188 82.3282 141.335C82.4752 141.482 82.6743 141.565 82.8822 141.566Z" fill="#F5F5F5"/>
    <path d="M82.8822 156.494H89.2882C89.4938 156.493 89.6909 156.411 89.8375 156.267C89.9842 156.123 90.0689 155.928 90.0736 155.722C90.0724 155.514 89.9893 155.315 89.8422 155.168C89.6952 155.021 89.4961 154.938 89.2882 154.937H82.8822C82.6743 154.938 82.4752 155.021 82.3282 155.168C82.1811 155.315 82.098 155.514 82.0968 155.722C82.1015 155.928 82.1862 156.123 82.3329 156.267C82.4795 156.411 82.6766 156.493 82.8822 156.494Z" fill="#F5F5F5"/>
    <path d="M88.7434 135.596C88.5848 135.595 88.4331 135.531 88.3209 135.419C88.2088 135.307 88.1453 135.155 88.1441 134.997V116.787C88.1441 116.628 88.2072 116.476 88.3196 116.363C88.432 116.251 88.5844 116.188 88.7434 116.188C88.902 116.189 89.0537 116.252 89.1658 116.365C89.278 116.477 89.3415 116.628 89.3427 116.787V134.997C89.3415 135.155 89.278 135.307 89.1658 135.419C89.0537 135.531 88.902 135.595 88.7434 135.596Z" fill="#F5F5F5"/>
    <path d="M94.3503 134.888H83.1365V136.3H94.3503V134.888Z" fill="#F0F0F0"/>
    <path d="M91.8487 124.7C91.7701 124.7 91.6945 124.669 91.6385 124.614C91.5824 124.559 91.5503 124.484 91.5491 124.405V115.316C91.5503 115.237 91.5822 115.161 91.6382 115.105C91.6941 115.049 91.7696 115.018 91.8487 115.016C91.9278 115.018 92.0034 115.049 92.0593 115.105C92.1153 115.161 92.1472 115.237 92.1484 115.316V124.396C92.149 124.436 92.1417 124.475 92.1269 124.512C92.1121 124.549 92.0901 124.583 92.0622 124.611C92.0344 124.639 92.0011 124.662 91.9645 124.677C91.9278 124.692 91.8885 124.7 91.8487 124.7Z" fill="#F0F0F0"/>
    <path d="M80.022 118.449C80.022 118.449 80.2445 109.868 88.7434 109.868C97.2423 109.868 97.4602 118.44 97.4602 118.44L80.022 118.449Z" fill="#F0F0F0"/>
    <path d="M153.593 130.57C153.833 130.57 154.079 130.57 154.324 130.593C156.835 130.775 159.196 131.857 160.972 133.642C162.748 135.426 163.82 137.792 163.989 140.304C164.061 141.445 163.948 142.591 163.653 143.696C162.515 148.128 161.966 152.69 162.019 157.266V170.586C162.02 170.817 161.975 171.045 161.886 171.258C161.798 171.472 161.669 171.665 161.505 171.828C161.342 171.991 161.148 172.12 160.935 172.208C160.721 172.295 160.493 172.34 160.262 172.338H117.981V130.57H153.593Z" fill="#F0F0F0"/>
    <path d="M107.562 140.99C107.566 139.509 107.886 138.046 108.501 136.698C109.116 135.351 110.011 134.15 111.127 133.176C112.242 132.202 113.553 131.477 114.971 131.049C116.389 130.622 117.882 130.502 119.35 130.697C120.818 130.893 122.228 131.399 123.484 132.182C124.741 132.965 125.817 134.008 126.639 135.24C127.461 136.471 128.011 137.865 128.252 139.326C128.493 140.787 128.42 142.283 128.037 143.714C126.903 148.146 126.355 152.709 126.407 157.284V170.604C126.407 170.834 126.362 171.062 126.274 171.274C126.186 171.486 126.056 171.679 125.894 171.842C125.731 172.004 125.538 172.133 125.325 172.22C125.112 172.308 124.885 172.353 124.655 172.352H111.303C111.073 172.352 110.846 172.307 110.634 172.219C110.422 172.131 110.229 172.002 110.067 171.84C109.904 171.678 109.776 171.485 109.688 171.273C109.6 171.061 109.555 170.834 109.555 170.604V156.485C109.593 152.194 109.05 147.917 107.938 143.773C107.688 142.866 107.561 141.93 107.562 140.99Z" fill="#F5F5F5"/>
    <path d="M132.336 172.338H170.295V146.978H132.336V172.338Z" fill="#F0F0F0"/>
    <path d="M201.667 152.717H150.86V113.822C150.86 111.732 151.69 109.727 153.168 108.249C154.646 106.771 156.651 105.941 158.741 105.941H193.785C195.876 105.941 197.88 106.771 199.358 108.249C200.836 109.727 201.667 111.732 201.667 113.822V152.717Z" fill="#E0E0E0"/>
    <path d="M191.738 152.717H140.931V113.441C140.931 111.451 141.721 109.542 143.129 108.134C144.536 106.727 146.445 105.936 148.435 105.936H184.215C186.205 105.936 188.114 106.727 189.522 108.134C190.929 109.542 191.72 111.451 191.72 113.441V152.717H191.738Z" fill="#F5F5F5"/>
    <path d="M167.817 154.991H132.827C132.225 154.991 131.647 154.752 131.222 154.326C130.796 153.9 130.557 153.323 130.557 152.721V146.969C130.557 146.367 130.796 145.789 131.222 145.364C131.647 144.938 132.225 144.699 132.827 144.699H167.817C167.998 144.699 168.173 144.771 168.301 144.9C168.43 145.028 168.502 145.203 168.502 145.384V154.31C168.501 154.491 168.428 154.664 168.3 154.792C168.171 154.919 167.998 154.991 167.817 154.991Z" fill="#E0E0E0"/>
    <path d="M205.412 130.57C205.653 130.57 205.894 130.57 206.143 130.593C208.654 130.776 211.014 131.859 212.789 133.643C214.564 135.427 215.635 137.793 215.804 140.304C215.881 141.445 215.767 142.591 215.468 143.696C214.33 148.129 213.78 152.693 213.834 157.27V170.591C213.834 170.82 213.789 171.048 213.701 171.26C213.612 171.473 213.483 171.666 213.32 171.828C213.158 171.99 212.964 172.119 212.752 172.207C212.539 172.294 212.311 172.339 212.082 172.338H169.796V130.57H205.412Z" fill="#F0F0F0"/>
    <path d="M159.381 140.99C159.363 138.274 160.406 135.659 162.288 133.702C164.169 131.744 166.741 130.599 169.455 130.51C172.169 130.421 174.81 131.396 176.816 133.226C178.822 135.057 180.033 137.598 180.193 140.309C180.264 141.45 180.151 142.595 179.857 143.7C178.719 148.132 178.169 152.695 178.222 157.27V170.591C178.222 171.054 178.038 171.499 177.71 171.826C177.382 172.154 176.938 172.338 176.474 172.338H163.118C162.888 172.338 162.661 172.293 162.449 172.205C162.237 172.118 162.044 171.989 161.882 171.826C161.719 171.664 161.591 171.471 161.503 171.259C161.415 171.047 161.37 170.82 161.37 170.591V156.485C161.408 152.194 160.865 147.918 159.758 143.773C159.508 142.866 159.381 141.93 159.381 140.99Z" fill="#F5F5F5"/>
    <path d="M118.721 173.61H204.668C204.834 173.61 205 173.577 205.154 173.513C205.307 173.449 205.447 173.355 205.565 173.237C205.683 173.119 205.776 172.979 205.839 172.825C205.903 172.67 205.935 172.505 205.934 172.338H117.454C117.454 172.505 117.486 172.67 117.549 172.825C117.613 172.979 117.706 173.119 117.824 173.237C117.941 173.355 118.081 173.449 118.235 173.513C118.389 173.577 118.554 173.61 118.721 173.61Z" fill="#E0E0E0"/>
    <path d="M169.624 76.213H197.268V46.0628H169.624V76.213Z" fill="#E0E0E0"/>
    <path d="M167.975 76.213H196.337V46.0628H167.975V76.213Z" fill="#F5F5F5"/>
    <path d="M193.958 73.8386V48.4373H170.345V73.8386H193.958Z" fill="white"/>
    <path d="M182.154 54.7161L188.61 65.9026H175.698L182.154 54.7161Z" fill="#F5F5F5"/>
    <path d="M130.843 93.8146H158.487V63.6644H130.843V93.8146Z" fill="#E0E0E0"/>
    <path d="M129.195 93.8146H157.556V63.6644H129.195V93.8146Z" fill="#F5F5F5"/>
    <path d="M155.177 91.4402V66.0388H131.565V91.4402H155.177Z" fill="white"/>
    <path d="M140.486 83.2681L137.685 78.4149C137.393 77.9083 137.24 77.334 137.241 76.7496C137.241 76.1652 137.396 75.5912 137.688 75.0853C137.981 74.5793 138.401 74.1592 138.907 73.8671C139.414 73.575 139.988 73.4211 140.572 73.4209H146.188C146.772 73.4217 147.346 73.5758 147.852 73.8679C148.358 74.1601 148.778 74.58 149.071 75.0856C149.364 75.5912 149.519 76.1648 149.52 76.7491C149.522 77.3333 149.37 77.9078 149.08 78.4149L146.279 83.2681C145.987 83.7786 145.565 84.2028 145.057 84.4978C144.548 84.7928 143.97 84.9482 143.382 84.9482C142.794 84.9482 142.217 84.7928 141.708 84.4978C141.199 84.2028 140.778 83.7786 140.486 83.2681Z" fill="#F5F5F5"/>
    <path d="M143.691 45.0822H39.0349L45.9221 187.611H150.578L143.691 45.0822Z" fill="#D7D7D7"/>
    <path opacity="0.2" d="M143.691 45.0822H39.0349L45.9221 187.611H150.578L143.691 45.0822Z" fill="black"/>
    <path d="M144.658 45.0822H40.0019L46.8936 187.611H151.55L144.658 45.0822Z" fill="#D7D7D7"/>
    <path opacity="0.2" d="M139.133 49.8764H44.7871L51.3792 181.169L133.417 181.06L147.051 168.974L139.133 49.8764Z" fill="black"/>
    <path d="M139.855 49.8719C140.861 89.1912 144.036 128.425 149.366 167.394C141.89 172.54 134.452 177.685 127.052 182.83H56.4912C49.8312 138.797 45.9223 94.3915 44.7871 49.8719H139.855Z" fill="white"/>
    <path d="M149.366 167.394C141.89 172.54 134.452 177.685 127.052 182.83C128.668 176.02 130.352 169.21 132.105 162.4L149.366 167.394Z" fill="#EBEBEB"/>
    <path d="M70.37 61.8847C70.5486 66.6911 70.7574 71.5005 70.9965 76.3129H56.5729C56.3308 71.5005 56.122 66.6911 55.9464 61.8847H70.37ZM71.8409 60.3638H54.371C54.5738 66.1841 54.8265 72.0074 55.1292 77.8338H72.6037C72.301 72.0105 72.0483 66.1872 71.8455 60.3638H71.8409Z" fill="#D7D7D7"/>
    <path d="M129.308 67.301H79.904C79.8586 66.2159 79.8177 65.1263 79.7769 64.0412H129.177C129.217 65.1263 129.263 66.2159 129.308 67.301Z" fill="#E0E0E0"/>
    <path d="M118.871 74.1564H80.2082C80.1582 73.0668 80.1037 71.9817 80.0583 70.8966H118.716C118.768 71.9832 118.819 73.0698 118.871 74.1564Z" fill="#E0E0E0"/>
    <path d="M71.7865 90.1417C72.0891 94.9541 72.4266 99.7665 72.7989 104.579H58.3708C57.9985 99.7665 57.661 94.9541 57.3583 90.1417H71.7865ZM73.212 88.6208H55.7421C56.0992 94.4471 56.5063 100.273 56.9634 106.1H74.456C74.002 100.276 73.5934 94.4502 73.2302 88.6208H73.212Z" fill="#D7D7D7"/>
    <path d="M99.6076 95.5625H81.4476C81.375 94.4729 81.2978 93.3878 81.2297 92.2982H99.3897C99.4578 93.3878 99.5304 94.4729 99.6076 95.5625Z" fill="#E0E0E0"/>
    <path d="M116.801 95.5625H103.448C103.376 94.4729 103.299 93.3878 103.231 92.2982H116.583C116.651 93.3878 116.723 94.4729 116.801 95.5625Z" fill="#E0E0E0"/>
    <path d="M125.181 102.422H81.947C81.8653 101.333 81.7881 100.248 81.7064 99.1581H124.941C125.023 100.248 125.1 101.333 125.181 102.422Z" fill="#E0E0E0"/>
    <path d="M73.952 118.412C74.3849 123.225 74.851 128.037 75.3504 132.849H60.9222C60.4228 128.037 59.9567 123.225 59.5239 118.412H73.952ZM75.3413 116.891H57.8668C58.3814 122.721 58.9443 128.549 59.5557 134.375H77.0302C76.4248 128.546 75.8619 122.718 75.3413 116.891Z" fill="#D7D7D7"/>
    <path d="M133.521 127.433H84.1126L84.4395 130.693H133.848L133.521 127.433Z" fill="#E0E0E0"/>
    <path d="M122.126 120.573H83.4633C83.5632 121.658 83.6631 122.748 83.7675 123.833H122.426C122.326 122.748 122.221 121.672 122.126 120.573Z" fill="#E0E0E0"/>
    <path d="M76.8713 146.683C77.4342 151.495 78.029 156.306 78.6555 161.116H64.2274C63.6008 156.309 63.0061 151.498 62.4431 146.683H76.8713ZM78.2333 145.162H60.7452C61.411 150.991 62.1299 156.816 62.9017 162.636H80.358C79.5922 156.816 78.8734 150.991 78.2015 145.162H78.2333Z" fill="#D7D7D7"/>
    <path d="M136.241 152.09H86.832C86.7004 151 86.5687 149.915 86.4416 148.826H135.846C135.978 149.929 136.105 151.014 136.241 152.09Z" fill="#E0E0E0"/>
    <path d="M110.181 158.959H87.6901C87.5493 157.874 87.4131 156.784 87.2769 155.699H109.768C109.904 156.784 110.041 157.874 110.181 158.959Z" fill="#E0E0E0"/>
    <path d="M123.611 158.959H113.9C113.759 157.874 113.623 156.784 113.486 155.699H123.197C123.334 156.784 123.488 157.874 123.611 158.959Z" fill="#E0E0E0"/>
    <path d="M64.014 74.2517L63.3738 73.2347C61.9755 71.0101 59.1244 69.0262 58.1392 68.445L58.8747 67.1421C60.8075 68.3158 62.5345 69.7989 63.9867 71.5322C66.1841 68.5404 69.4347 65.4486 73.8839 62.1254L74.8237 63.3512C70.0749 66.906 66.7516 70.1612 64.6541 73.2938L64.014 74.2517Z" fill="#D7D7D7"/>
    <path d="M65.7392 102.518L65.0718 101.501C63.619 99.2762 60.7134 97.2877 59.7146 96.7065L60.4092 95.4036C62.3789 96.5777 64.1464 98.0616 65.6438 99.7983C67.7595 96.8019 70.9239 93.7101 75.2868 90.3823C75.6091 90.7909 75.936 91.1995 76.2584 91.6127C71.6049 95.172 68.3678 98.4227 66.3566 101.56C66.1478 101.878 65.9435 102.2 65.7392 102.518Z" fill="#D7D7D7"/>
    <path d="M68.2453 130.861L67.5507 129.844C66.0343 127.619 63.0742 125.631 62.0618 125.054C62.2797 124.6 62.5158 124.183 62.7246 123.751C64.725 124.927 66.5295 126.409 68.0728 128.141C70.1112 125.145 73.1939 122.058 77.4615 118.726L78.4694 119.956C73.9294 123.515 70.7514 126.766 68.8309 129.903L68.2453 130.861Z" fill="#D7D7D7"/>
    <path d="M114.013 174.999C111.334 174.999 109.791 174.009 108.429 173.137C107.067 172.266 105.895 171.512 103.635 171.512C101.374 171.512 100.366 172.302 99.2989 173.137C98.232 173.973 96.9244 174.999 94.2458 174.999C91.5672 174.999 90.0237 174.009 88.6662 173.137C87.3087 172.266 86.1374 171.512 83.872 171.512C81.6065 171.512 80.6032 172.302 79.5363 173.137C78.4694 173.973 77.1618 174.999 74.4878 174.999C71.8137 174.999 70.2656 174.009 68.9036 173.137C67.5416 172.266 66.3748 171.512 64.1093 171.512C64.0503 171.058 63.9868 170.64 63.9277 170.205C66.6063 170.205 68.1454 171.194 69.5074 172.066C70.8694 172.938 72.0362 173.691 74.2971 173.691C76.558 173.691 77.5659 172.901 78.6328 172.066C79.6997 171.231 81.0118 170.205 83.6904 170.205C86.3689 170.205 87.9035 171.194 89.2655 172.066C90.6275 172.938 91.7988 173.691 94.0597 173.691C96.3206 173.691 97.3285 172.901 98.3954 172.066C99.4623 171.231 100.774 170.205 103.453 170.205C106.132 170.205 107.671 171.194 109.033 172.066C110.395 172.938 111.561 173.691 113.827 173.691C113.886 174.127 113.954 174.563 114.013 174.999Z" fill="#EBEBEB"/>
    <path d="M117.854 48.6098C116.319 44.5238 112.774 41.8406 108.96 41.8406H101.187C100.609 41.8356 100.045 41.6608 99.5643 41.338C99.0841 41.0152 98.7093 40.5585 98.4862 40.0246C97.9367 38.7197 97.0179 37.6039 95.8427 36.8142C94.6675 36.0246 93.2872 35.5956 91.8714 35.58C90.5018 35.5661 89.1635 35.9897 88.0514 36.7891C86.9392 37.5885 86.1112 38.722 85.6879 40.0246C85.5155 40.5576 85.177 41.0214 84.7219 41.3482C84.2669 41.6749 83.7193 41.8475 83.1592 41.8406H75.3912C71.5731 41.8406 68.2861 44.5374 67.1511 48.6098L66.6971 50.2306H118.453L117.854 48.6098Z" fill="#8687E7"/>
    <path d="M118.131 51.8286H67.192C66.7624 51.8236 66.3506 51.656 66.0398 51.3594C65.7289 51.0628 65.542 50.6595 65.5167 50.2306C65.5056 50.0245 65.5367 49.8183 65.6083 49.6247C65.6798 49.4312 65.7902 49.2543 65.9327 49.105C66.0752 48.9557 66.2467 48.8372 66.4368 48.7567C66.6268 48.6762 66.8313 48.6355 67.0376 48.637H117.976C118.405 48.6419 118.816 48.809 119.127 49.1046C119.438 49.4002 119.625 49.8025 119.652 50.2306C119.663 50.437 119.633 50.6437 119.562 50.8378C119.49 51.0319 119.38 51.2093 119.237 51.3591C119.095 51.5089 118.923 51.6278 118.733 51.7086C118.542 51.7894 118.338 51.8302 118.131 51.8286Z" fill="#BCBDFF"/>
    <path opacity="0.2" d="M118.131 51.8286H67.192C66.7624 51.8236 66.3506 51.656 66.0398 51.3594C65.7289 51.0628 65.542 50.6595 65.5167 50.2306C65.5056 50.0245 65.5367 49.8183 65.6083 49.6247C65.6798 49.4312 65.7902 49.2543 65.9327 49.105C66.0752 48.9557 66.2467 48.8372 66.4368 48.7567C66.6268 48.6762 66.8313 48.6355 67.0376 48.637H117.976C118.405 48.6419 118.816 48.809 119.127 49.1046C119.438 49.4002 119.625 49.8025 119.652 50.2306C119.663 50.437 119.633 50.6437 119.562 50.8378C119.49 51.0319 119.38 51.2093 119.237 51.3591C119.095 51.5089 118.923 51.6278 118.733 51.7086C118.542 51.7894 118.338 51.8302 118.131 51.8286Z" fill="black"/>
    <path d="M163.858 186.244H160.53L160.198 178.54H163.526L163.858 186.244Z" fill="#FFC3BD"/>
    <path d="M183.829 186.244H180.501L178.831 178.54H182.154L183.829 186.244Z" fill="#FFC3BD"/>
    <path d="M180.265 185.859H184.002C184.068 185.858 184.132 185.881 184.183 185.922C184.234 185.963 184.27 186.021 184.283 186.086L184.941 189.046C184.956 189.117 184.955 189.192 184.937 189.263C184.92 189.334 184.887 189.4 184.84 189.457C184.793 189.514 184.735 189.559 184.668 189.59C184.602 189.621 184.529 189.637 184.456 189.636C183.153 189.613 182.517 189.536 180.874 189.536C179.861 189.536 177.777 189.64 176.384 189.64C174.99 189.64 174.804 188.278 175.376 188.138C177.941 187.575 178.903 186.803 179.725 186.063C179.874 185.931 180.066 185.859 180.265 185.859Z" fill="#263238"/>
    <path d="M160.553 185.859H164.185C164.25 185.858 164.314 185.881 164.366 185.922C164.417 185.963 164.452 186.021 164.466 186.086L165.124 189.046C165.141 189.115 165.141 189.187 165.126 189.257C165.111 189.326 165.081 189.392 165.037 189.448C164.994 189.505 164.938 189.551 164.875 189.583C164.811 189.616 164.742 189.634 164.67 189.636C163.358 189.613 161.465 189.536 159.817 189.536C157.892 189.536 156.23 189.64 153.97 189.64C152.608 189.64 152.226 188.278 152.798 188.138C155.4 187.566 157.524 187.507 159.772 186.117C160.004 185.963 160.274 185.873 160.553 185.859Z" fill="#263238"/>
    <path d="M167.072 64.8857C166.618 67.3191 166.355 70.3337 168.057 71.959C168.057 71.959 167.081 74.4288 162.559 74.4288C158.428 74.4288 160.498 71.959 160.498 71.959C163.222 71.3098 163.068 67.9547 162.596 66.057L167.072 64.8857Z" fill="#FFC3BD"/>
    <path d="M159.2 72.2995C159.29 71.6957 160.353 70.992 161.56 70.7286C162.768 70.4653 167.408 69.8797 168.824 70.4653C170.241 71.051 168.579 72.7853 168.579 72.7853L159.2 72.2995Z" fill="#D7D7D7"/>
    <path opacity="0.4" d="M159.2 72.2995C159.29 71.6957 160.353 70.992 161.56 70.7286C162.768 70.4653 167.408 69.8797 168.824 70.4653C170.241 71.051 168.579 72.7853 168.579 72.7853L159.2 72.2995Z" fill="white"/>
    <path opacity="0.2" d="M160.198 178.545L160.371 182.513H163.699L163.526 178.545H160.198Z" fill="black"/>
    <path opacity="0.2" d="M182.158 178.545H178.831L179.693 182.513H183.021L182.158 178.545Z" fill="black"/>
    <path d="M174.949 74.9554L170.94 77.634C170.94 77.634 176.697 87.8717 176.216 89.5106C175.557 91.7443 174.64 96.6248 173.392 99.1037C173.555 99.6394 174.386 100.861 174.849 101.069C178.027 98.6542 181.237 91.0815 181.119 88.9613C180.842 84.1534 174.949 74.9554 174.949 74.9554Z" fill="#FFC3BD"/>
    <path d="M173.392 99.1127L170.214 98.8676L171.88 102.368C171.88 102.368 174.654 102.49 175.117 100.37L173.392 99.1127Z" fill="#B55B52"/>
    <path d="M189.1 116.183L188.832 116.687L187.034 120.088L123.211 86.3417L125.272 82.4373L189.1 116.183Z" fill="#D7D7D7"/>
    <path d="M193.227 108.388L191.91 110.876L191.166 112.283L127.338 78.5375L129.399 74.6331L193.227 108.388Z" fill="#D7D7D7"/>
    <path d="M127.359 78.526L125.293 82.4256L189.095 116.221L191.161 112.321L127.359 78.526Z" fill="#D7D7D7"/>
    <path opacity="0.2" d="M127.359 78.526L125.293 82.4256L189.095 116.221L191.161 112.321L127.359 78.526Z" fill="black"/>
    <path d="M120.46 75.1506L118.603 78.6646L123.211 86.3417L129.399 74.6376L120.46 75.1506Z" fill="#D7D7D7"/>
    <path opacity="0.8" d="M120.46 75.1506L118.603 78.6646L123.211 86.3417L129.399 74.6376L120.46 75.1506Z" fill="white"/>
    <path d="M116.628 75.3731L118.603 78.6646L120.46 75.1506L116.628 75.3731Z" fill="#D7D7D7"/>
    <path d="M167.658 100.461L169.319 103.557L171.893 102.368L170.227 98.8676L167.658 100.461Z" fill="#B55B52"/>
    <path d="M173.995 72.7126C177.142 73.1666 180.746 84.0626 180.746 84.0626L174.136 87.7945C174.136 87.7945 171.226 82.628 169.796 78.769C168.289 74.7329 170.622 72.2223 173.995 72.7126Z" fill="#8687E7"/>
    <path opacity="0.2" d="M172.166 76.4491C170.736 75.1415 171.612 80.7394 172.293 84.3214C172.643 85.0206 172.974 85.6562 173.255 86.1874C174.849 83.3726 174.136 78.2514 172.166 76.4491Z" fill="black"/>
    <path d="M155.363 72.8852C155.363 72.8852 151.436 82.9276 155.164 101.632H172.974C173.097 98.9084 171.38 85.579 174.014 72.7126C172.047 72.3328 170.057 72.0811 168.057 71.959C165.54 71.8136 163.016 71.8136 160.498 71.959C158.765 72.1323 157.048 72.442 155.363 72.8852Z" fill="#8687E7"/>
    <path d="M158.101 77.5523L153.615 75.7771C153.615 75.7771 148.449 86.3236 146.805 86.8547C144.594 87.5811 140.054 89.5787 137.303 89.9692C136.958 90.4232 136.422 91.7852 136.509 92.2846C140.3 93.524 148.367 91.8805 150.038 90.5821C153.87 87.622 158.101 77.5523 158.101 77.5523Z" fill="#FFC3BD"/>
    <path opacity="0.2" d="M158.605 76.3537C157.865 74.6467 156.448 73.9339 154.973 74.1836C154.401 76.2765 153.434 80.8756 153.611 87.8036L154.669 88.3121C154.669 88.3121 159.872 79.2729 158.605 76.3537Z" fill="black"/>
    <path d="M159.313 75.1597C160.43 78.1379 154.773 86.9001 154.773 86.9001L148.117 83.2681C149.117 80.5428 150.407 77.9326 151.963 75.482C154.301 71.9908 158.083 71.8954 159.313 75.1597Z" fill="#8687E7"/>
    <path d="M137.467 89.9601L133.508 90.8L135.514 94.4638C136.621 93.9133 137.626 93.1796 138.488 92.2937L137.467 89.9601Z" fill="#FFC3BD"/>
    <path d="M131.637 91.6308L133.217 93.8191L135.514 94.4819L133.508 90.8182L131.637 91.6308Z" fill="#FFC3BD"/>
    <path d="M159.527 61.3853C159.527 61.6532 159.359 61.8393 159.181 61.8393C159.004 61.8393 158.877 61.6033 158.895 61.3354C158.914 61.0675 159.063 60.8814 159.24 60.8814C159.418 60.8814 159.545 61.1175 159.527 61.3853Z" fill="#263238"/>
    <path d="M159.763 61.408C159.396 62.2079 158.921 62.9535 158.351 63.6236C158.526 63.7654 158.73 63.8669 158.949 63.9211C159.168 63.9752 159.396 63.9806 159.617 63.9368L159.763 61.408Z" fill="#ED847E"/>
    <path d="M159.186 60.4592C159.162 60.4541 159.139 60.4449 159.118 60.4319C159.1 60.4209 159.085 60.4064 159.073 60.3893C159.061 60.3723 159.053 60.353 159.049 60.3326C159.045 60.3123 159.044 60.2913 159.049 60.2709C159.053 60.2505 159.061 60.2312 159.073 60.214C159.204 60.0014 159.384 59.8231 159.598 59.6936C159.812 59.5642 160.053 59.4874 160.303 59.4695C160.344 59.4716 160.383 59.4891 160.413 59.5184C160.442 59.5478 160.46 59.5869 160.462 59.6283C160.462 59.6705 160.445 59.7109 160.415 59.7407C160.385 59.7705 160.345 59.7873 160.303 59.7873C160.109 59.8053 159.923 59.8685 159.758 59.9718C159.593 60.0751 159.455 60.2156 159.354 60.382C159.338 60.4108 159.312 60.4337 159.282 60.4475C159.252 60.4614 159.219 60.4654 159.186 60.4592Z" fill="#263238"/>
    <path d="M168.552 61.1538C168.162 64.4317 168.098 66.3657 166.341 67.9638C163.694 70.3609 159.722 68.6221 159.122 65.2897C158.587 62.2933 159.318 57.4401 162.614 56.3142C163.339 56.0632 164.116 56.0018 164.872 56.1357C165.628 56.2696 166.337 56.5943 166.932 57.0792C167.526 57.564 167.988 58.1928 168.271 58.9059C168.555 59.6191 168.651 60.3928 168.552 61.1538Z" fill="#FFC3BD"/>
    <path d="M161.946 61.7939C160.798 62.0209 158.964 59.4695 160.462 57.3039C159.704 56.9271 157.229 58.4162 156.299 57.0269C155.368 55.6377 157.951 54.8977 157.456 53.7218C159.209 54.0805 156.321 56.2688 157.987 56.0554C159.654 55.842 161.574 52.7639 163.435 54.026C166.727 56.237 171.212 52.5505 169.383 57.1677C171.626 56.7137 173.16 59.365 171.022 61.2037C166.759 64.8584 169.383 65.3397 166.682 65.5258C165.329 65.6257 162.182 64.014 161.946 61.7939Z" fill="#263238"/>
    <path d="M163.649 62.652C163.492 62.9797 163.271 63.2727 162.998 63.5136C162.726 63.7545 162.409 63.9386 162.064 64.0549C161.156 64.3681 160.634 63.5555 160.848 62.6611C161.038 61.853 161.756 60.718 162.695 60.7997C162.902 60.8198 163.1 60.8914 163.271 61.0078C163.443 61.1242 163.582 61.2817 163.677 61.466C163.772 61.6503 163.819 61.8554 163.814 62.0626C163.809 62.2698 163.752 62.4724 163.649 62.652Z" fill="#FFC3BD"/>
    <path d="M161.474 101.632C161.474 101.632 165.251 127.056 167.322 136.59C169.592 147.032 178.141 181.759 178.141 181.759H184.233C184.233 181.759 178.599 147.863 177.301 137.535C175.898 126.33 172.956 101.646 172.956 101.646L161.474 101.632Z" fill="#D7D7D7"/>
    <path opacity="0.2" d="M161.474 101.632C161.474 101.632 165.251 127.056 167.322 136.59C169.592 147.032 178.141 181.759 178.141 181.759H184.233C184.233 181.759 178.599 147.863 177.301 137.535C175.898 126.33 172.956 101.646 172.956 101.646L161.474 101.632Z" fill="white"/>
    <path opacity="0.2" d="M165.96 110.522C165.678 110.122 165.424 109.986 165.188 110.068H165.138C165.084 110.091 165.034 110.122 164.988 110.159C164.94 110.198 164.896 110.242 164.856 110.29L164.784 110.381L164.689 110.531C164.61 110.663 164.541 110.801 164.484 110.944C164.448 111.03 164.412 111.121 164.38 111.212C164.348 111.303 164.298 111.443 164.262 111.57C164.225 111.698 164.157 111.916 164.107 112.102C164.107 112.152 164.085 112.197 164.071 112.247C164.057 112.297 164.021 112.456 163.998 112.56C163.976 112.665 163.958 112.742 163.939 112.833C163.899 113.01 163.862 113.196 163.826 113.386C163.79 113.577 163.749 113.8 163.712 114.013C163.712 114.086 163.69 114.158 163.676 114.235C163.631 114.508 163.59 114.785 163.549 115.071C164.557 121.4 165.755 128.655 166.727 133.717C166.772 133.553 166.822 133.381 166.863 133.195C167.061 132.35 167.213 131.495 167.317 130.634C168.175 124.11 167.78 113.123 165.96 110.522Z" fill="black"/>
    <path d="M155.164 101.632C155.164 101.632 154.71 126.503 155.068 136.649C155.445 147.2 159.132 181.745 159.132 181.745H164.766C164.766 181.745 164.97 147.813 165.22 137.453C165.492 126.158 166.854 101.632 166.854 101.632H155.164Z" fill="#D7D7D7"/>
    <path opacity="0.2" d="M155.164 101.632C155.164 101.632 154.71 126.503 155.068 136.649C155.445 147.2 159.132 181.745 159.132 181.745H164.766C164.766 181.745 164.97 147.813 165.22 137.453C165.492 126.158 166.854 101.632 166.854 101.632H155.164Z" fill="white"/>
    <path d="M165.138 180.02C165.161 180.02 165.138 181.859 165.138 181.859H158.641L158.369 179.793L165.138 180.02Z" fill="#263238"/>
    <path d="M184.233 180.156C184.26 180.156 184.537 181.859 184.537 181.859H177.841L177.251 179.907L184.233 180.156Z" fill="#263238"/>
    <path d="M179.167 186.44C178.94 186.458 178.715 186.399 178.526 186.272C178.465 186.222 178.418 186.158 178.39 186.084C178.361 186.011 178.352 185.932 178.363 185.854C178.364 185.809 178.376 185.764 178.399 185.725C178.422 185.686 178.455 185.654 178.495 185.632C178.862 185.445 179.938 186.086 180.061 186.176C180.073 186.186 180.083 186.198 180.089 186.213C180.094 186.227 180.096 186.243 180.093 186.258C180.09 186.273 180.084 186.288 180.073 186.299C180.063 186.31 180.049 186.318 180.034 186.322C179.75 186.393 179.459 186.432 179.167 186.44ZM178.672 185.754C178.637 185.746 178.602 185.746 178.567 185.754C178.551 185.763 178.538 185.777 178.53 185.793C178.521 185.809 178.517 185.827 178.517 185.845C178.51 185.898 178.517 185.952 178.536 186.002C178.555 186.052 178.586 186.096 178.626 186.131C178.997 186.303 179.42 186.326 179.807 186.194C179.46 185.976 179.075 185.826 178.672 185.754Z" fill="#D7D7D7"/>
    <path d="M180.016 186.326C180.004 186.33 179.991 186.33 179.979 186.326C179.634 186.14 178.971 185.418 179.039 185.041C179.051 184.984 179.082 184.932 179.128 184.894C179.173 184.857 179.23 184.837 179.289 184.837C179.349 184.828 179.41 184.832 179.468 184.85C179.526 184.867 179.58 184.897 179.625 184.937C180.011 185.25 180.079 186.213 180.079 186.254C180.079 186.268 180.075 186.281 180.069 186.294C180.063 186.306 180.054 186.317 180.043 186.326C180.034 186.328 180.025 186.328 180.016 186.326ZM179.344 184.964H179.33C179.226 184.964 179.216 185.023 179.212 185.046C179.171 185.264 179.593 185.813 179.938 186.072C179.915 185.693 179.777 185.331 179.543 185.032C179.514 185.007 179.48 184.989 179.443 184.979C179.406 184.969 179.368 184.967 179.33 184.973L179.344 184.964Z" fill="#D7D7D7"/>
    <path d="M159.168 186.44C158.883 186.466 158.598 186.394 158.36 186.235C158.307 186.188 158.267 186.128 158.242 186.062C158.217 185.996 158.207 185.924 158.214 185.854C158.215 185.811 158.226 185.769 158.249 185.732C158.271 185.695 158.303 185.665 158.342 185.645C158.746 185.418 160.085 186.099 160.235 186.176C160.25 186.183 160.262 186.195 160.27 186.21C160.277 186.225 160.279 186.242 160.276 186.258C160.274 186.274 160.266 186.289 160.255 186.301C160.243 186.312 160.228 186.32 160.212 186.322C159.869 186.395 159.519 186.434 159.168 186.44ZM158.564 185.754C158.514 185.752 158.465 185.761 158.419 185.781C158.404 185.79 158.391 185.803 158.382 185.818C158.374 185.833 158.369 185.85 158.369 185.868C158.362 185.914 158.368 185.961 158.384 186.005C158.401 186.048 158.429 186.087 158.464 186.117C158.668 186.299 159.218 186.331 159.953 186.208C159.519 185.98 159.049 185.826 158.564 185.754Z" fill="#D7D7D7"/>
    <path d="M160.198 186.326H160.167C159.763 186.145 158.968 185.418 159.032 185.05C159.032 184.964 159.109 184.851 159.322 184.832C159.403 184.821 159.485 184.826 159.564 184.849C159.642 184.872 159.714 184.911 159.776 184.964C160.198 185.314 160.285 186.208 160.289 186.249C160.291 186.262 160.289 186.276 160.284 186.288C160.278 186.3 160.269 186.31 160.257 186.317C160.24 186.327 160.219 186.331 160.198 186.326ZM159.386 184.964H159.354C159.213 184.964 159.204 185.032 159.2 185.055C159.163 185.277 159.704 185.845 160.108 186.09C160.068 185.709 159.91 185.35 159.654 185.064C159.576 185.006 159.482 184.974 159.386 184.973V184.964Z" fill="#D7D7D7"/>
</svg>
